<svg xmlns="http://www.w3.org/2000/svg" width="900" height="1125" viewBox="0 0 900 1125" fill="none">
  <defs>
    <linearGradient id="paper" x1="0" y1="0" x2="1" y2="1">
      <stop offset="0" stop-color="#ECFDF5"/>
      <stop offset="1" stop-color="#EFF6FF"/>
    </linearGradient>
    <filter id="grain" x="-20%" y="-20%" width="140%" height="140%">
      <feTurbulence type="fractalNoise" baseFrequency="0.95" numOctaves="2" stitchTiles="stitch" />
      <feColorMatrix type="matrix" values="0 0 0 0 0.1  0 0 0 0 0.1  0 0 0 0 0.12  0 0 0 0.08 0"/>
      <feBlend mode="multiply" in2="SourceGraphic"/>
    </filter>
  </defs>

  <rect x="34" y="34" width="832" height="1057" rx="48" fill="url(#paper)"/>

  <!-- doodle border -->
  <path d="M120 190c214-98 446-98 660 0" stroke="#0F172A" stroke-width="10" stroke-linecap="round" stroke-dasharray="2 18" opacity="0.5"/>
  <path d="M120 936c214 98 446 98 660 0" stroke="#0F172A" stroke-width="10" stroke-linecap="round" stroke-dasharray="2 18" opacity="0.5"/>

  <!-- portrait sketch -->
  <path d="M450 360c-96 0-174 84-174 188 0 110 58 194 174 194s174-84 174-194c0-104-78-188-174-188Z" stroke="#0F172A" stroke-width="12" stroke-linecap="round" stroke-linejoin="round" opacity="0.9"/>
  <path d="M368 520c22-28 56-42 82-42 26 0 60 14 82 42" stroke="#0F172A" stroke-width="10" stroke-linecap="round" opacity="0.7"/>
  <path d="M392 610c36 34 80 34 116 0" stroke="#0F172A" stroke-width="10" stroke-linecap="round" opacity="0.7"/>
  <path d="M412 560c12 12 64 12 76 0" stroke="#0F172A" stroke-width="8" stroke-linecap="round" opacity="0.55"/>

  <!-- decorative strokes -->
  <path d="M220 760c58 8 120 6 176-4" stroke="#0F172A" stroke-width="8" stroke-linecap="round" opacity="0.25"/>
  <path d="M504 756c62 10 120 10 176 0" stroke="#0F172A" stroke-width="8" stroke-linecap="round" opacity="0.25"/>

  <rect x="34" y="34" width="832" height="1057" rx="48" filter="url(#grain)" opacity="0.18"/>
</svg>
