<svg xmlns="http://www.w3.org/2000/svg" width="900" height="1125" viewBox="0 0 900 1125" fill="none">
  <defs>
    <linearGradient id="paper" x1="0" y1="0" x2="1" y2="1">
      <stop offset="0" stop-color="#FFF7ED"/>
      <stop offset="1" stop-color="#FDF2F8"/>
    </linearGradient>
    <filter id="grain" x="-20%" y="-20%" width="140%" height="140%">
      <feTurbulence type="fractalNoise" baseFrequency="0.85" numOctaves="2" stitchTiles="stitch" />
      <feColorMatrix type="matrix" values="0 0 0 0 0.1  0 0 0 0 0.09  0 0 0 0 0.12  0 0 0 0.08 0"/>
      <feBlend mode="multiply" in2="SourceGraphic"/>
    </filter>
  </defs>

  <rect x="34" y="34" width="832" height="1057" rx="48" fill="url(#paper)"/>

  <!-- loose frame -->
  <path d="M134 162c166-48 458-50 632 0" stroke="#0F172A" stroke-width="10" stroke-linecap="round" stroke-dasharray="3 20" opacity="0.55"/>
  <path d="M134 970c166 48 458 50 632 0" stroke="#0F172A" stroke-width="10" stroke-linecap="round" stroke-dasharray="3 20" opacity="0.55"/>
  <path d="M138 210c-22 126-18 506 0 698" stroke="#0F172A" stroke-width="10" stroke-linecap="round" stroke-dasharray="3 20" opacity="0.55"/>
  <path d="M762 210c22 126 18 506 0 698" stroke="#0F172A" stroke-width="10" stroke-linecap="round" stroke-dasharray="3 20" opacity="0.55"/>

  <!-- mountain line art -->
  <path d="M214 760c70-168 134-270 210-342 48 76 90 148 142 244 48-44 92-80 140-106 24 64 52 134 84 204" stroke="#0F172A" stroke-width="12" stroke-linecap="round" stroke-linejoin="round" opacity="0.9"/>
  <path d="M214 764c160 70 310 70 472 0" stroke="#0F172A" stroke-width="10" stroke-linecap="round" opacity="0.65"/>

  <!-- sun + scribble clouds -->
  <path d="M640 310c0 54-44 98-98 98s-98-44-98-98 44-98 98-98 98 44 98 98Z" stroke="#0F172A" stroke-width="10" opacity="0.55"/>
  <path d="M278 356c42-26 114-22 154 10" stroke="#0F172A" stroke-width="8" stroke-linecap="round" opacity="0.35"/>
  <path d="M260 396c52-26 134-20 178 12" stroke="#0F172A" stroke-width="8" stroke-linecap="round" opacity="0.28"/>

  <rect x="34" y="34" width="832" height="1057" rx="48" filter="url(#grain)" opacity="0.18"/>
</svg>
